HIERARCHY
ROOT hip
{
  OFFSET 0 0 0
  CHANNELS 6 Xposition Yposition Zposition Zrotation Yrotation Xrotation
  JOINT abdomen
  {
    OFFSET 0 20.6881 -0.73152
    CHANNELS 3 Zrotation Xrotation Yrotation
    JOINT chest
    {
      OFFSET 0 11.7043 -0.48768
      CHANNELS 3 Zrotation Xrotation Yrotation
      JOINT neck
      {
        OFFSET 0 22.1894 -2.19456
        CHANNELS 3 Zrotation Xrotation Yrotation
        JOINT head
        {
          OFFSET -0.24384 7.07133 1.2192
          CHANNELS 3 Zrotation Xrotation Yrotation
          JOINT leftEye
          {
            OFFSET 4.14528 8.04674 8.04672
            CHANNELS 3 Zrotation Xrotation Yrotation
            End Site
            {
              OFFSET 1 0 0
            }
          }
          JOINT rightEye
          {
            OFFSET -3.6576 8.04674 8.04672
            CHANNELS 3 Zrotation Xrotation Yrotation
            End Site
            {
              OFFSET 1 0 0
            }
          }
        }
      }
      JOINT rCollar
      {
        OFFSET -2.68224 19.2634 -4.8768
        CHANNELS 3 Zrotation Xrotation Yrotation
        JOINT rShldr
        {
          OFFSET -8.77824 -1.95073 1.46304
          CHANNELS 3 Zrotation Xrotation Yrotation
          JOINT rForeArm
          {
            OFFSET -28.1742 -1.7115 0.48768
            CHANNELS 3 Zrotation Xrotation Yrotation
            JOINT rHand
            {
              OFFSET -22.5879 0.773209 7.07136
              CHANNELS 3 Zrotation Xrotation Yrotation
              JOINT rThumb1
              {
                OFFSET -1.2192 -0.487915 3.41376
                CHANNELS 3 Zrotation Xrotation Yrotation
                JOINT rThumb2
                {
                  OFFSET -3.37035 -0.52449 3.41376
                  CHANNELS 3 Zrotation Xrotation Yrotation
                  End Site
                  {
                    OFFSET -1.78271 -1.18214 1.43049
                  }
                }
              }
              JOINT rIndex1
              {
                OFFSET -7.75947 0.938293 5.60832
                CHANNELS 3 Zrotation Xrotation Yrotation
                JOINT rIndex2
                {
                  OFFSET -2.54057 -0.884171 1.56538
                  CHANNELS 3 Zrotation Xrotation Yrotation
                  End Site
                  {
                    OFFSET -1.62519 -0.234802 1.16502
                  }
                }
              }
              JOINT rMid1
              {
                OFFSET -8.24714 1.18213 3.41376
                CHANNELS 3 Zrotation Xrotation Yrotation
                JOINT rMid2
                {
                  OFFSET -3.10165 -0.590103 1.0647
                  CHANNELS 3 Zrotation Xrotation Yrotation
                  End Site
                  {
                    OFFSET -2.48547 -0.328903 0.83742
                  }
                }
              }
              JOINT rRing1
              {
                OFFSET -8.82822 0.546677 1.51678
                CHANNELS 3 Zrotation Xrotation Yrotation
                JOINT rRing2
                {
                  OFFSET -2.60934 -0.819778 -0.0198488
                  CHANNELS 3 Zrotation Xrotation Yrotation
                  End Site
                  {
                    OFFSET -2.33842 -0.294052 0.168128
                  }
                }
              }
              JOINT rPinky1
              {
                OFFSET -8.27202 -0.0477905 -0.4584
                CHANNELS 3 Zrotation Xrotation Yrotation
                JOINT rPinky2
                {
                  OFFSET -1.82734 -0.647385 -0.700984
                  CHANNELS 3 Zrotation Xrotation Yrotation
                  End Site
                  {
                    OFFSET -1.69225 -0.51767 -0.607171
                  }
                }
              }
            }
          }
        }
      }
      JOINT lCollar
      {
        OFFSET 2.68224 19.2634 -4.8768
        CHANNELS 3 Zrotation Xrotation Yrotation
        JOINT lShldr
        {
          OFFSET 8.77824 -1.95073 1.46304
          CHANNELS 3 Zrotation Xrotation Yrotation
          JOINT lForeArm
          {
            OFFSET 28.1742 -1.7115 0.48768
            CHANNELS 3 Zrotation Xrotation Yrotation
            JOINT lHand
            {
              OFFSET 22.5879 0.773209 7.07136
              CHANNELS 3 Zrotation Xrotation Yrotation
              JOINT lThumb1
              {
                OFFSET 1.2192 -0.487915 3.41376
                CHANNELS 3 Zrotation Xrotation Yrotation
                JOINT lThumb2
                {
                  OFFSET 3.37035 -0.52449 3.41376
                  CHANNELS 3 Zrotation Xrotation Yrotation
                  End Site
                  {
                    OFFSET 1.78271 -1.18214 1.43049
                  }
                }
              }
              JOINT lIndex1
              {
                OFFSET 7.75947 0.938293 5.60832
                CHANNELS 3 Zrotation Xrotation Yrotation
                JOINT lIndex2
                {
                  OFFSET 2.54057 -0.884171 1.56538
                  CHANNELS 3 Zrotation Xrotation Yrotation
                  End Site
                  {
                    OFFSET 1.62519 -0.234802 1.16502
                  }
                }
              }
              JOINT lMid1
              {
                OFFSET 8.24714 1.18213 3.41376
                CHANNELS 3 Zrotation Xrotation Yrotation
                JOINT lMid2
                {
                  OFFSET 3.10165 -0.590103 1.0647
                  CHANNELS 3 Zrotation Xrotation Yrotation
                  End Site
                  {
                    OFFSET 2.48547 -0.328903 0.83742
                  }
                }
              }
              JOINT lRing1
              {
                OFFSET 8.82822 0.546677 1.51678
                CHANNELS 3 Zrotation Xrotation Yrotation
                JOINT lRing2
                {
                  OFFSET 2.60934 -0.819778 -0.0198488
                  CHANNELS 3 Zrotation Xrotation Yrotation
                  End Site
                  {
                    OFFSET 2.33842 -0.294052 0.168128
                  }
                }
              }
              JOINT lPinky1
              {
                OFFSET 8.27202 -0.0477905 -0.4584
                CHANNELS 3 Zrotation Xrotation Yrotation
                JOINT lPinky2
                {
                  OFFSET 1.82734 -0.647385 -0.700984
                  CHANNELS 3 Zrotation Xrotation Yrotation
                  End Site
                  {
                    OFFSET 1.69225 -0.51767 -0.607171
                  }
                }
              }
            }
          }
        }
      }
    }
  }
  JOINT rButtock
  {
    OFFSET -8.77824 4.35084 1.2192
    CHANNELS 3 Zrotation Xrotation Yrotation
    JOINT rThigh
    {
      OFFSET 0 -1.70687 -2.19456
      CHANNELS 3 Zrotation Xrotation Yrotation
      JOINT rShin
      {
        OFFSET 0 -36.8199 0.73152
        CHANNELS 3 Zrotation Xrotation Yrotation
        JOINT rFoot
        {
          OFFSET 0.73152 -45.1104 -5.12064
          CHANNELS 3 Zrotation Xrotation Yrotation
          End Site
          {
            OFFSET -1.1221 -3.69964 12.103
          }
        }
      }
    }
  }
  JOINT lButtock
  {
    OFFSET 8.77824 4.35084 1.2192
    CHANNELS 3 Zrotation Xrotation Yrotation
    JOINT lThigh
    {
      OFFSET 0 -1.70687 -2.19456
      CHANNELS 3 Zrotation Xrotation Yrotation
      JOINT lShin
      {
        OFFSET 0 -36.8199 0.73152
        CHANNELS 3 Zrotation Xrotation Yrotation
        JOINT lFoot
        {
          OFFSET -0.73152 -45.1104 -5.12064
          CHANNELS 3 Zrotation Xrotation Yrotation
          End Site
          {
            OFFSET 1.1221 -3.69964 12.103
          }
        }
      }
    }
  }
}
MOTION
Frames:	6
Frame Time:	0.00833333
39.9613 83.4221 59.896 0.0 0.0 0.0 -2.71688 0.0011595 -0.0732883 -0.748389 0.0144139 -0.129497 1.23174e-14 7.95139e-16 2.98177e-16 3.69771e-14 9.54166e-15 7.40783e-16 -0.0 0.0 0.0 -0.0 0.0 0.0 6.2602e-15 -6.91087e-17 3.47873e-16 1.30434e-13 -1.22377e-15 4.37326e-15 2.2086e-12 -7.18408e-13 4.13472e-14 2.54386e-11 4.11907e-13 5.97944e-13 5.99728e-11 -6.67089e-13 1.38672e-12 1.03567e-10 -1.15454e-12 2.39337e-12 5.99789e-11 -6.68314e-13 1.39308e-12 7.73091 5.47488 0.417314 5.99712e-11 -6.67519e-13 1.39308e-12 2.90554 0.965183 0.102902 5.99831e-11 -6.66624e-13 1.38831e-12 10.2786 0.731801 0.0259123 5.997e-11 -6.65133e-13 1.3899e-12 2.22167 -0.733487 -0.20892 6.06485e-15 -6.91087e-17 4.96962e-17 1.27264e-13 -1.41634e-15 2.38542e-15 2.23797e-12 6.13052e-13 2.54444e-14 2.54249e-11 -9.28946e-13 6.13847e-13 6.00047e-11 -6.88983e-13 1.37082e-12 1.03619e-10 -1.19271e-12 2.38065e-12 6.00008e-11 -6.8859e-13 1.38036e-12 -7.73091 5.47488 -0.417314 6.00052e-11 -6.88789e-13 1.38036e-12 -2.90554 0.965183 -0.102902 5.99935e-11 -6.88391e-13 1.37957e-12 -10.2786 0.731801 -0.0259123 6.00127e-11 -6.84217e-13 1.38354e-12 -2.22167 -0.733487 0.20892 -2.03217e-16 0.0 -3.88251e-19 -1.56592 -1.93222 0.00882568 -0.00886138 -2.07861 -0.0729507 -0.497246 3.9993 0.138148 2.03217e-16 0.0 3.88251e-19 -2.55896 -8.62935 0.275705 -0.00720947 10.0516 -0.18691 0.546229 -1.43365 -0.0319689
35.3781 81.8815 56.0955 -14.7794 -49.7436 15.2004 0.852176 -1.47561 -0.758807 -1.67212 1.69475 -0.331295 -2.1316 2.51583 -1.87985 6.2291 -7.73648 -2.06523 -0.0 0.0 0.0 -0.0 0.0 0.0 -4.76131e-14 -1.20046e-13 9.8082e-14 17.3302 10.8751 0.17719 -2.81786 -1.08908 4.58713 0.0370141 4.26978 0.594074 -1.0163e-09 -5.10968e-10 5.07518e-10 -1.75012e-09 -8.79924e-10 8.90341e-10 -1.0163e-09 -5.1097e-10 5.07521e-10 7.73091 5.47488 0.417314 -1.01631e-09 -5.10969e-10 5.07524e-10 2.90554 0.965183 0.102902 -1.0163e-09 -5.10968e-10 5.07518e-10 10.2786 0.731801 0.0259123 -1.01631e-09 -5.10965e-10 5.0752e-10 2.22167 -0.733487 -0.20892 -4.77663e-14 -1.2005e-13 9.7811e-14 -17.9369 10.2571 -0.0626038 3.24872 -1.32417 -5.22775 -0.00018604 0.375898 -0.0528262 -8.54801e-10 1.49455e-09 1.04907e-09 -1.47743e-09 2.59008e-09 1.81665e-09 -8.54807e-10 1.49455e-09 1.04908e-09 -7.73091 5.47488 -0.417314 -8.548e-10 1.49455e-09 1.04908e-09 -2.90554 0.965183 -0.102902 -8.54811e-10 1.49455e-09 1.04908e-09 -10.2786 0.731801 -0.0259123 -8.54794e-10 1.49455e-09 1.04908e-09 -2.22167 -0.733487 0.20892 -2.03217e-16 0.0 -3.88251e-19 1.28568 -6.11007 -1.62826 0.0234354 8.09499 0.110721 -0.766555 -2.57623 -1.76952 2.03217e-16 0.0 3.88251e-19 0.657907 -11.8619 1.7424 -0.000133195 19.0812 -0.330978 1.07689 -7.87551 2.60111
35.3877 81.8813 56.1362 -14.8087 -49.5982 15.2802 4.58792 -3.02398 -1.48348 -2.6388 3.47176 -0.544389 -4.20402 5.16941 -3.87857 12.1884 -15.8968 -4.37321 -0.0 0.0 0.0 -0.0 0.0 0.0 -1.11182e-13 -2.6436e-13 2.00583e-13 35.5673 22.3867 0.389435 -5.60868 -2.21763 9.44314 -0.0211655 8.78163 1.23311 -2.15352e-09 -1.05781e-09 1.0688e-09 -3.70852e-09 -1.82161e-09 1.8743e-09 -2.15352e-09 -1.05781e-09 1.06879e-09 7.73091 5.47488 0.417314 -2.15352e-09 -1.05781e-09 1.0688e-09 2.90554 0.965183 0.102902 -2.15351e-09 -1.05781e-09 1.06879e-09 10.2786 0.731801 0.0259123 -2.15353e-09 -1.0578e-09 1.0688e-09 2.22167 -0.733487 -0.20892 -1.1129e-13 -2.64368e-13 2.00341e-13 -36.8688 21.1057 -0.139342 6.40502 -2.67702 -10.7371 0.000450028 0.798992 -0.112294 -1.83595e-09 3.13482e-09 2.22587e-09 -3.17313e-09 5.43265e-09 3.85441e-09 -1.83595e-09 3.13482e-09 2.22588e-09 -7.73091 5.47488 -0.417314 -1.83594e-09 3.13482e-09 2.22588e-09 -2.90554 0.965183 -0.102902 -1.83595e-09 3.13482e-09 2.22588e-09 -10.2786 0.731801 -0.0259123 -1.83594e-09 3.13483e-09 2.22588e-09 -2.22167 -0.733487 0.20892 -2.03217e-16 0.0 -3.88251e-19 4.03784 -10.5099 -3.38726 -0.0164462 18.8521 0.319738 -1.53274 -9.50776 -3.83691 2.03217e-16 0.0 3.88251e-19 4.24546 -15.2602 3.34099 0.064285 28.6286 -0.511486 2.30095 -14.6353 5.51481
35.3987 81.8778 56.1812 -14.8346 -49.484 15.3667 7.88402 -4.42646 -2.13546 -3.48393 5.05509 -0.737324 -5.89679 7.51485 -5.68309 16.8942 -23.0834 -6.67592 -0.0 0.0 0.0 -0.0 0.0 0.0 -1.5536e-13 -3.6e-13 2.9355e-13 51.7568 32.624 0.619815 -7.93533 -3.18359 13.7806 -0.160304 12.8037 1.82261 -3.16886e-09 -1.53157e-09 1.51978e-09 -5.45749e-09 -2.63746e-09 2.66624e-09 -3.16886e-09 -1.53157e-09 1.51978e-09 7.73091 5.47488 0.417314 -3.16886e-09 -1.53157e-09 1.51979e-09 2.90554 0.965183 0.102902 -3.16885e-09 -1.53157e-09 1.51978e-09 10.2786 0.731801 0.0259123 -3.16886e-09 -1.53157e-09 1.51978e-09 2.22167 -0.733487 -0.20892 -1.55429e-13 -3.60011e-13 2.93334e-13 -53.734 30.7712 -0.215091 9.02992 -3.84045 -15.7153 0.00152167 1.12769 -0.158506 -2.68441e-09 4.48503e-09 3.14447e-09 -4.63952e-09 7.77264e-09 5.4452e-09 -2.68442e-09 4.48503e-09 3.14446e-09 -7.73091 5.47488 -0.417314 -2.68441e-09 4.48502e-09 3.14447e-09 -2.90554 0.965183 -0.102902 -2.68442e-09 4.48503e-09 3.14447e-09 -10.2786 0.731801 -0.0259123 -2.68441e-09 4.48503e-09 3.14447e-09 -2.22167 -0.733487 0.20892 -2.03217e-16 0.0 -3.88251e-19 6.25301 -14.4196 -5.03363 -0.127584 28.4412 0.539812 -2.65427 -15.6546 -5.79445 2.03217e-16 0.0 3.88251e-19 7.61292 -18.2825 4.8139 0.186603 37.139 -0.715402 4.01287 -20.5826 8.32868
35.4171 81.8724 56.2291 -14.7959 -49.3873 15.4119 10.1543 -5.46666 -2.60062 -4.05014 6.15451 -0.877649 -6.99361 9.12103 -6.96044 19.774 -27.9544 -8.50757 -0.0 0.0 0.0 -0.0 0.0 0.0 -1.5106e-13 -3.33952e-13 3.62683e-13 63.0074 39.6768 0.810255 -9.46577 -3.82296 16.8033 -0.308372 15.6069 2.24989 -3.87949e-09 -1.82264e-09 1.69503e-09 -6.68291e-09 -3.13875e-09 2.97809e-09 -3.87949e-09 -1.82265e-09 1.69503e-09 7.73091 5.47488 0.417314 -3.8795e-09 -1.82265e-09 1.69504e-09 2.90554 0.965183 0.102902 -3.87949e-09 -1.82265e-09 1.69503e-09 10.2786 0.731801 0.0259123 -3.8795e-09 -1.82264e-09 1.69503e-09 2.22167 -0.733487 -0.20892 -1.51103e-13 -3.33965e-13 3.62484e-13 -65.4966 37.4791 -0.25919 10.8134 -4.65064 -19.3361 0.001827 1.2204 -0.171543 -3.20118e-09 5.11006e-09 3.41753e-09 -5.53262e-09 8.85617e-09 5.91858e-09 -3.20119e-09 5.11005e-09 3.41753e-09 -7.73091 5.47488 -0.417314 -3.20118e-09 5.11005e-09 3.41753e-09 -2.90554 0.965183 -0.102902 -3.20119e-09 5.11005e-09 3.41754e-09 -10.2786 0.731801 -0.0259123 -3.20118e-09 5.11005e-09 3.41753e-09 -2.22167 -0.733487 0.20892 -2.03217e-16 0.0 -3.88251e-19 7.64351 -17.1458 -6.28156 -0.25887 35.1113 0.726741 -3.69795 -19.9127 -7.25517 2.03217e-16 0.0 3.88251e-19 10.0554 -20.4026 5.86003 0.321573 43.0575 -0.8959 5.58699 -24.6646 10.4646
35.4377 81.8784 56.2471 -14.7876 -49.2255 15.5028 11.0194 -6.00926 -2.79851 -4.23492 6.57909 -0.942429 -7.41501 9.71598 -7.47131 20.7848 -29.682 -9.32047 -0.0 0.0 0.0 -0.0 0.0 0.0 -6.64118e-14 -1.00242e-13 4.23047e-13 67.4582 42.2574 0.859596 -10.0368 -4.05948 17.971 -0.378687 16.7127 2.42307 -4.31457e-09 -1.90277e-09 1.4991e-09 -7.43584e-09 -3.27671e-09 2.64546e-09 -4.31456e-09 -1.90278e-09 1.4991e-09 7.73091 5.47488 0.417314 -4.31457e-09 -1.90278e-09 1.49911e-09 2.90554 0.965183 0.102902 -4.31456e-09 -1.90278e-09 1.4991e-09 10.2786 0.731801 0.0259123 -4.31457e-09 -1.90277e-09 1.49911e-09 2.22167 -0.733487 -0.20892 -6.64509e-14 -1.00254e-13 4.22857e-13 -70.1566 40.0274 -0.227062 11.6298 -5.0504 -21.0423 0.000920411 0.988756 -0.138967 -3.29831e-09 4.73348e-09 2.71222e-09 -5.70055e-09 8.20435e-09 4.69844e-09 -3.29832e-09 4.73348e-09 2.71222e-09 -7.73091 5.47488 -0.417314 -3.29831e-09 4.73348e-09 2.71222e-09 -2.90554 0.965183 -0.102902 -3.29832e-09 4.73348e-09 2.71222e-09 -10.2786 0.731801 -0.0259123 -3.29831e-09 4.73348e-09 2.71222e-09 -2.22167 -0.733487 0.20892 -2.03217e-16 0.0 -3.88251e-19 8.121 -18.2478 -6.8916 -0.324979 37.6964 0.810385 -4.16044 -21.5854 -7.83414 2.03217e-16 0.0 3.88251e-19 11.0209 -21.2837 6.23438 0.388143 45.3444 -0.977564 6.29998 -26.2618 11.3536
